<svg width="162" height="46" viewBox="0 0 162 46" fill="none" xmlns="http://www.w3.org/2000/svg">
<path d="M12.5742 36.4113C8.72933 36.4113 5.61052 20.1198 5.61052 -7.62939e-06H-4.19617e-05C-4.19617e-05 21.6611 5.66003 39.1956 12.5907 39.1956C16.5511 39.1956 20.0495 33.9419 22.3597 25.6884C24.6699 33.9419 28.1683 39.1956 32.0957 39.1956C39.0264 39.1956 44.6699 21.6777 44.6699 0.0165634H39.0594C39.0594 20.1364 35.9736 36.4113 32.1287 36.4113C28.2838 36.4113 25.165 21.3628 25.165 2.80086H19.5874C19.5874 21.3628 16.4521 36.4113 12.6072 36.4113" fill="#F2B007"/>
<path d="M51.9716 18.2341V38.5978H48.9986V18.2341H51.9716ZM60.4158 38.9358C59.448 38.9358 58.573 38.7569 57.7908 38.3989C57.0086 38.0343 56.3888 37.5073 55.9315 36.8179C55.4807 36.1286 55.2553 35.2834 55.2553 34.2824C55.2553 33.4207 55.421 32.7114 55.7525 32.1546C56.0839 31.5978 56.5314 31.157 57.0948 30.8322C57.6583 30.5073 58.288 30.2621 58.984 30.0964C59.68 29.9306 60.3893 29.8047 61.1119 29.7185C62.0266 29.6125 62.7691 29.5263 63.3391 29.46C63.9092 29.3871 64.3235 29.2711 64.582 29.112C64.8406 28.9529 64.9698 28.6944 64.9698 28.3364V28.2668C64.9698 27.3984 64.7246 26.7256 64.234 26.2483C63.7501 25.7711 63.0276 25.5324 62.0664 25.5324C61.0655 25.5324 60.2766 25.7545 59.6999 26.1986C59.1299 26.6361 58.7354 27.1233 58.5167 27.6603L55.7227 27.0239C56.0541 26.0959 56.538 25.3468 57.1744 24.7768C57.8174 24.2001 58.5565 23.7824 59.3917 23.5239C60.2269 23.2588 61.1052 23.1262 62.0266 23.1262C62.6365 23.1262 63.2828 23.1991 63.9656 23.3449C64.6549 23.4841 65.2979 23.7427 65.8945 24.1205C66.4978 24.4983 66.9916 25.0386 67.3761 25.7412C67.7605 26.4373 67.9528 27.3421 67.9528 28.4557V38.5978H65.0494V36.5097H64.93C64.7378 36.8942 64.4495 37.272 64.065 37.6432C63.6805 38.0144 63.1867 38.3227 62.5835 38.5679C61.9802 38.8132 61.2577 38.9358 60.4158 38.9358ZM61.0621 36.5495C61.8841 36.5495 62.5868 36.3871 63.1701 36.0623C63.7601 35.7375 64.2075 35.3132 64.5124 34.7895C64.824 34.2592 64.9798 33.6925 64.9798 33.0893V31.1205C64.8737 31.2266 64.6682 31.326 64.3633 31.4188C64.065 31.505 63.7236 31.5812 63.3391 31.6475C62.9547 31.7072 62.5801 31.7635 62.2156 31.8165C61.851 31.8629 61.546 31.9027 61.3008 31.9358C60.7241 32.0088 60.1971 32.1314 59.7198 32.3037C59.2492 32.4761 58.8713 32.7247 58.5863 33.0495C58.3079 33.3677 58.1687 33.7919 58.1687 34.3222C58.1687 35.058 58.4405 35.6148 58.984 35.9927C59.5276 36.3639 60.2203 36.5495 61.0621 36.5495ZM74.647 33.4174L74.6271 29.7881H75.1442L81.2294 23.3251H84.7891L77.8487 30.683H77.3814L74.647 33.4174ZM71.9126 38.5978V18.2341H74.8857V38.5978H71.9126ZM81.5575 38.5978L76.0888 31.3393L78.1371 29.2611L85.2067 38.5978H81.5575ZM93.3029 38.906C91.8711 38.906 90.6216 38.5779 89.5543 37.9216C88.4871 37.2654 87.6585 36.3473 87.0685 35.1674C86.4786 33.9875 86.1836 32.6087 86.1836 31.031C86.1836 29.4467 86.4786 28.0613 87.0685 26.8748C87.6585 25.6882 88.4871 24.7668 89.5543 24.1106C90.6216 23.4543 91.8711 23.1262 93.3029 23.1262C94.7347 23.1262 95.9843 23.4543 97.0515 24.1106C98.1187 24.7668 98.9473 25.6882 99.5373 26.8748C100.127 28.0613 100.422 29.4467 100.422 31.031C100.422 32.6087 100.127 33.9875 99.5373 35.1674C98.9473 36.3473 98.1187 37.2654 97.0515 37.9216C95.9843 38.5779 94.7347 38.906 93.3029 38.906ZM93.3129 36.4103C94.2409 36.4103 95.0098 36.165 95.6197 35.6745C96.2295 35.184 96.6803 34.531 96.9719 33.7157C97.2702 32.9003 97.4194 32.0021 97.4194 31.0211C97.4194 30.0466 97.2702 29.1518 96.9719 28.3364C96.6803 27.5144 96.2295 26.8549 95.6197 26.3577C95.0098 25.8606 94.2409 25.612 93.3129 25.612C92.3782 25.612 91.6026 25.8606 90.9862 26.3577C90.3763 26.8549 89.9222 27.5144 89.6239 28.3364C89.3323 29.1518 89.1864 30.0466 89.1864 31.0211C89.1864 32.0021 89.3323 32.9003 89.6239 33.7157C89.9222 34.531 90.3763 35.184 90.9862 35.6745C91.6026 36.165 92.3782 36.4103 93.3129 36.4103ZM103.741 38.5978V23.3251H106.594V25.8108H106.783C107.102 24.969 107.622 24.3127 108.344 23.8421C109.067 23.3648 109.932 23.1262 110.94 23.1262C111.96 23.1262 112.816 23.3648 113.505 23.8421C114.201 24.3194 114.715 24.9756 115.046 25.8108H115.205C115.57 24.9955 116.15 24.3459 116.945 23.862C117.741 23.3715 118.689 23.1262 119.789 23.1262C121.174 23.1262 122.305 23.5604 123.18 24.4287C124.061 25.2971 124.502 26.6063 124.502 28.3563V38.5978H121.529V28.6347C121.529 27.6006 121.247 26.8516 120.684 26.3876C120.121 25.9235 119.448 25.6915 118.665 25.6915C117.698 25.6915 116.945 25.9898 116.408 26.5864C115.871 27.1764 115.603 27.9354 115.603 28.8634V38.5978H112.64V28.4458C112.64 27.6172 112.381 26.951 111.864 26.4472C111.347 25.9434 110.674 25.6915 109.846 25.6915C109.282 25.6915 108.762 25.8407 108.285 26.139C107.814 26.4306 107.433 26.8383 107.141 27.362C106.856 27.8857 106.714 28.4922 106.714 29.1816V38.5978H103.741ZM134.92 38.906C133.488 38.906 132.239 38.5779 131.172 37.9216C130.104 37.2654 129.276 36.3473 128.686 35.1674C128.096 33.9875 127.801 32.6087 127.801 31.031C127.801 29.4467 128.096 28.0613 128.686 26.8748C129.276 25.6882 130.104 24.7668 131.172 24.1106C132.239 23.4543 133.488 23.1262 134.92 23.1262C136.352 23.1262 137.601 23.4543 138.669 24.1106C139.736 24.7668 140.565 25.6882 141.154 26.8748C141.744 28.0613 142.039 29.4467 142.039 31.031C142.039 32.6087 141.744 33.9875 141.154 35.1674C140.565 36.3473 139.736 37.2654 138.669 37.9216C137.601 38.5779 136.352 38.906 134.92 38.906ZM134.93 36.4103C135.858 36.4103 136.627 36.165 137.237 35.6745C137.847 35.184 138.297 34.531 138.589 33.7157C138.887 32.9003 139.037 32.0021 139.037 31.0211C139.037 30.0466 138.887 29.1518 138.589 28.3364C138.297 27.5144 137.847 26.8549 137.237 26.3577C136.627 25.8606 135.858 25.612 134.93 25.612C133.995 25.612 133.22 25.8606 132.603 26.3577C131.993 26.8549 131.539 27.5144 131.241 28.3364C130.949 29.1518 130.804 30.0466 130.804 31.0211C130.804 32.0021 130.949 32.9003 131.241 33.7157C131.539 34.531 131.993 35.184 132.603 35.6745C133.22 36.165 133.995 36.4103 134.93 36.4103ZM145.358 38.5978V23.3251H148.232V25.7512H148.391C148.669 24.9292 149.16 24.2829 149.862 23.8123C150.571 23.335 151.374 23.0964 152.268 23.0964C152.454 23.0964 152.673 23.103 152.925 23.1162C153.183 23.1295 153.385 23.1461 153.531 23.166V26.0097C153.412 25.9766 153.2 25.9401 152.895 25.9003C152.59 25.8539 152.285 25.8307 151.98 25.8307C151.277 25.8307 150.651 25.9799 150.101 26.2782C149.557 26.5698 149.126 26.9775 148.808 27.5012C148.49 28.0182 148.331 28.6082 148.331 29.2711V38.5978H145.358ZM156.104 38.5978V23.3251H159.077V38.5978H156.104ZM157.605 20.9685C157.088 20.9685 156.644 20.7962 156.273 20.4515C155.908 20.1001 155.726 19.6825 155.726 19.1986C155.726 18.7081 155.908 18.2905 156.273 17.9458C156.644 17.5945 157.088 17.4188 157.605 17.4188C158.123 17.4188 158.563 17.5945 158.928 17.9458C159.299 18.2905 159.485 18.7081 159.485 19.1986C159.485 19.6825 159.299 20.1001 158.928 20.4515C158.563 20.7962 158.123 20.9685 157.605 20.9685Z" fill="#E7E7E7"/>
</svg>
