<svg width="21" height="20" viewBox="0 0 21 20" fill="none" xmlns="http://www.w3.org/2000/svg">
<g clip-path="url(#clip0_75_60)">
<path d="M8.68253 0C4.09212 0 0.362061 3.64511 0.362061 8.13096C0.362061 12.6168 4.09212 16.2619 8.68253 16.2619C10.4988 16.2619 12.1774 15.6902 13.5463 14.7224L19.9855 21L21.3621 19.6548L14.9994 13.4221C16.2497 11.9984 17.003 10.1506 17.003 8.13096C17.003 3.64511 13.2729 0 8.68253 0ZM8.68253 0.956584C12.7433 0.956584 16.0241 4.16263 16.0241 8.13096C16.0241 12.0993 12.7433 15.3053 8.68253 15.3053C4.62171 15.3053 1.34094 12.0993 1.34094 8.13096C1.34094 4.16263 4.62171 0.956584 8.68253 0.956584Z" fill="#E7E7E7"/>
</g>
<defs>
<clipPath id="clip0_75_60">
<rect width="19.8276" height="20" fill="white" transform="translate(0.362061)"/>
</clipPath>
</defs>
</svg>
